<svg xmlns="http://www.w3.org/2000/svg" viewBox="0 0 576 512" fill="currentColor"><path d="M407.8 294.7c-3.3-.4-6.7-.8-10-1.3c3.4.4 6.7.9 10 1.3zM288 227.1C261.9 176.4 190.9 81.9 124.9 35.3C61.6-9.4 37.5-1.7 21.6 5.5C3.3 13.8 0 41.9 0 58.4S9.1 194 15 213.9c19.5 65.7 89.1 87.9 153.2 80.7c3.3-.5 6.6-.9 10-1.4c-3.3.5-6.6 1-10 1.4C23.4 318.4-68.2 410 96.3 488c165 78.4 216.9-88.8 191.8-174.9c-25.1 86.1 26.8 253.3 191.8 174.9C644.4 410 552.8 318.4 408 294.6c-3.4-.4-6.7-.9-10-1.3c3.3.4 6.6.9 10 1.3c64.1 7.1 133.6-15.1 153.2-80.7C567 194 576 75 576 58.4s-3.3-44.7-21.6-52.9c-15.8-7.1-40-14.9-103.2 29.8C385.3 81.9 314.1 176.4 288 227.1z"/></svg>
